<?xml version="1.0" encoding="iso-8859-1"?>
<!-- Generator: Adobe Illustrator 19.0.0, SVG Export Plug-In . SVG Version: 6.00 Build 0)  -->
<svg version="1.1" id="Layer_1" xmlns="http://www.w3.org/2000/svg" xmlns:xlink="http://www.w3.org/1999/xlink" x="0px" y="0px"
	 viewBox="0 0 508 508" style="enable-background:new 0 0 508 508;" xml:space="preserve">
<path style="fill:#7D8B95;" d="M64,57.8l17.2,38h3.2h20.8L84.8,50.6c-7.2-16-19.2-26.8-42.4-26.8H6v20h35.6C56.8,43.8,60,49,64,57.8
	z"/>
<path style="fill:#EFDC81;" d="M196.8,327.8h10.4h21.6h247.6c8.8,0,17.6-6.4,17.6-15.2V115.8H90l84.8,196.4
	C178,320.2,188,327.8,196.8,327.8z"/>
<g>
	<path style="fill:#F4EFEF;" d="M392,297c5.6,0,10-4.4,10-10V152.6c0-5.6-4.4-10-10-10s-10,4.4-10,10V287
		C382,292.6,386.4,297,392,297z"/>
	<path style="fill:#F4EFEF;" d="M448,297c5.6,0,10-4.4,10-10V152.6c0-5.6-4.4-10-10-10c-5.6,0-10,4.4-10,10V287
		C438,292.6,442.4,297,448,297z"/>
	<path style="fill:#F4EFEF;" d="M336,297c5.6,0,10-4.4,10-10V152.6c0-5.6-4.4-10-10-10s-10,4.4-10,10V287
		C326,292.6,330.4,297,336,297z"/>
	<path style="fill:#F4EFEF;" d="M276,297c5.6,0,10-4.4,10-10V152.6c0-5.6-4.4-10-10-10s-10,4.4-10,10V287
		C266,292.6,270.4,297,276,297z"/>
	<path style="fill:#F4EFEF;" d="M220,297c5.6,0,10-4.4,10-10V152.6c0-5.6-4.4-10-10-10s-10,4.4-10,10V287
		C210,292.6,214.4,297,220,297z"/>
	<path style="fill:#F4EFEF;" d="M178,152.6c0-5.6-2.4-10-8-10s-8,4.4-8,10v43.6c0,5.6,2.4,10,8,10s8-4.4,8-10V152.6z"/>
</g>
<g>
	<path style="fill:#7D8B95;" d="M172,395.8c-24,0-43.2,19.2-43.2,43.2s19.2,43.2,43.2,43.2s43.2-19.2,43.2-43.2S196,395.8,172,395.8
		z"/>
	<path style="fill:#7D8B95;" d="M460.8,482.6c24,0,43.2-19.2,43.2-43.2s-19.2-43.2-43.2-43.2s-43.2,19.2-43.2,43.2
		S436.8,482.6,460.8,482.6z"/>
</g>
<path style="fill:#EF934A;" d="M81.2,95.8L81.2,95.8c-4.8,0-7.2,7.2-7.2,11.6v4c0,4.4,2.8,4.8,7.2,4.8h411.2c4.4,0,6-0.4,6-4.8v-4
	c0-4.4-1.6-11.6-6-11.6H105.6H84.8C84.4,95.8,81.2,95.8,81.2,95.8z"/>
<circle style="fill:#73BADD;" cx="316.4" cy="284.6" r="110.4"/>
<path d="M264,187.8c-2.4,0-4-1.6-4-4v-31.6c0-7.6,6.4-14,14-14s14,6,14,14v23.6c0,2.4-1.6,4-4,4s-4-1.6-4-4v-23.6c0-3.2-2.8-6-6-6
	s-6,2.8-6,6v31.6C268,186.2,266.4,187.8,264,187.8z"/>
<path d="M212,247.8c-2.4,0-4-1.6-4-4v-91.6c0-7.6,6.4-14,14-14s14,6,14,14v59.6c0,2.4-1.6,4-4,4s-4-1.6-4-4v-59.6c0-3.2-2.8-6-6-6
	s-6,2.8-6,6v91.6C216,246.2,214.4,247.8,212,247.8z"/>
<path d="M170,212.6c-7.6,0-14-6-14-14v-46.4c0-7.6,6.4-14,14-14s14,6,14,14v46.4C184,206.6,177.6,212.6,170,212.6z M170,146.6
	c-3.2,0-6,2.8-6,6V199c0,3.2,2.8,6,6,6s6-2.8,6-6v-46.4C176,149,173.2,146.6,170,146.6z"/>
<path d="M344,179.8c-2.4,0-4-1.6-4-4v-23.6c0-3.2-2.8-6-6-6s-6,2.8-6,6v19.6c0,2.4-1.6,4-4,4s-4-1.6-4-4v-19.6c0-7.6,6.4-14,14-14
	s14,6,14,14v23.6C348,178.2,346.4,179.8,344,179.8z"/>
<path d="M400,215.8c-2.4,0-4-1.6-4-4v-59.6c0-3.2-2.8-6-6-6s-6,2.8-6,6v39.6c0,2.4-1.6,4-4,4s-4-1.6-4-4v-39.6c0-7.6,6.4-14,14-14
	s14,6,14,14v59.6C404,214.2,402.4,215.8,400,215.8z"/>
<path d="M446,300.6c-7.6,0-14-6-14-14V152.2c0-7.6,6.4-14,14-14s14,6,14,14v134.4C460,294.6,453.6,300.6,446,300.6z M446,146.6
	c-3.2,0-6,2.8-6,6V287c0,3.2,2.8,6,6,6s6-2.8,6-6V152.6C452,149,449.2,146.6,446,146.6z"/>
<path d="M85.2,100.6c-1.6,0-2.8-0.8-3.6-2.4L64.4,59.8c-3.2-6.8-4.8-10.4-18.8-10.4H4c-2.4,0-4-1.6-4-4v-20c0-2.4,1.6-4,4-4h42.4
	c22.8,0,37.6,8.8,46,28l20.4,44c0.8,2,0,4.4-2,5.2c-2,0.8-4.4,0-5.2-2l-20.4-44C78,36.2,66.4,29.4,46.4,29.4H8v12h37.6
	c16,0,20.8,4.4,26,14.8l17.2,38.4c0.8,2,0,4.4-2,5.2C86.4,100.6,86,100.6,85.2,100.6z"/>
<path d="M480.4,333.8H422c-2.4,0-4-1.6-4-4s1.6-4,4-4h58.4c5.2,0,7.6-10,7.6-17.2V119.8c0-2.4,1.6-4,4-4s4,1.6,4,4v188.8
	C496,321.4,491.2,333.8,480.4,333.8z"/>
<path d="M210,333.8h-9.2c-10.8,0-22.4-9.6-26-18.4L90.8,121c-0.8-2,0-4.4,2-5.2c2-0.8,4.4,0,5.2,2l84,194.4
	c2.8,6.8,12,13.2,18.8,13.2h9.2c2.4,0,4,1.6,4,4S212.4,333.8,210,333.8z"/>
<path d="M172,486.6c-26,0-47.2-21.2-47.2-47.2s21.2-47.2,47.2-47.2s47.2,21.2,47.2,47.2C219.2,465.4,198,486.6,172,486.6z
	 M172,399.8c-21.6,0-39.2,17.6-39.2,39.2s17.6,39.2,39.2,39.2s39.2-17.6,39.2-39.2S193.6,399.8,172,399.8z"/>
<path d="M172,466.6c-15.2,0-27.6-12.4-27.6-27.6s12.4-27.6,27.6-27.6c2.4,0,4,1.6,4,4s-1.6,4-4,4c-10.8,0-19.6,8.8-19.6,19.6
	c0,10.8,8.8,19.6,19.6,19.6s19.6-8.8,19.6-19.6c0-2.4,1.6-4,4-4s4,1.6,4,4C199.6,454.2,187.2,466.6,172,466.6z"/>
<path d="M460.8,486.6c-26,0-47.2-21.2-47.2-47.2s21.2-47.2,47.2-47.2s47.2,21.2,47.2,47.2C508,465.4,486.8,486.6,460.8,486.6z
	 M460.8,399.8c-21.6,0-39.2,17.6-39.2,39.2s17.6,39.2,39.2,39.2S500,460.6,500,439S482.4,399.8,460.8,399.8z"/>
<path d="M460.8,466.6c-15.2,0-27.6-12.4-27.6-27.6s12.4-27.6,27.6-27.6c2.4,0,4,1.6,4,4s-1.6,4-4,4c-10.8,0-19.6,8.8-19.6,19.6
	c0,10.8,8.8,19.6,19.6,19.6c10.8,0,19.6-8.8,19.6-19.6c0-2.4,1.6-4,4-4s4,1.6,4,4C488,454.2,476,466.6,460.8,466.6z"/>
<path d="M418,453.8H214c-2.4,0-4-1.6-4-4s1.6-4,4-4h204c2.4,0,4,1.6,4,4S420.4,453.8,418,453.8z"/>
<path d="M418,433.8H214c-2.4,0-4-1.6-4-4s1.6-4,4-4h204c2.4,0,4,1.6,4,4S420.4,433.8,418,433.8z"/>
<path d="M180.8,399c-0.4,0-1.2,0-1.6-0.4c-2-0.8-2.8-3.2-2-5.2l30.4-70.4c0.8-2,3.2-2.8,5.2-2s2.8,3.2,2,5.2l-30.4,70.4
	C183.6,398.2,182.4,399,180.8,399z"/>
<path d="M198.8,407.4c-0.4,0-1.2,0-1.6-0.4c-2-0.8-2.8-3.2-2-5.2l24.8-58c0.8-2,3.2-2.8,5.2-2s2.8,3.2,2,5.2l-24.8,58
	C201.6,406.6,200.4,407.4,198.8,407.4z"/>
<path d="M492,121.8H80c-6.4,0-12-5.2-12-12v-4c0-6.4,5.2-12,12-12h412c6.4,0,12,5.2,12,12v4C504,116.6,498.8,121.8,492,121.8z
	 M80,101.8c-2,0-4,1.6-4,4v4c0,2,1.6,4,4,4h412c2,0,4-1.6,4-4v-4c0-2-1.6-4-4-4H80z"/>
<path d="M316,399.4c-63.2,0-114.4-51.2-114.4-114.4c0-63.2,51.2-114.4,114.4-114.4S430.4,221.8,430.4,285
	C430.8,348.2,379.2,399.4,316,399.4z M316,178.6c-58.8,0-106.4,47.6-106.4,106.4S257.2,391.4,316,391.4S422.4,343.8,422.4,285
	C422.8,226.2,374.8,178.6,316,178.6z"/>
<path d="M316,339.8c-2.4,0-4-1.6-4-4v-104c0-2.4,1.6-4,4-4s4,1.6,4,4v104C320,338.2,318.4,339.8,316,339.8z"/>
<path d="M370,285.8H262c-2.4,0-4-1.6-4-4s1.6-4,4-4h108c2.4,0,4,1.6,4,4S372.4,285.8,370,285.8z"/>
<g>
</g>
<g>
</g>
<g>
</g>
<g>
</g>
<g>
</g>
<g>
</g>
<g>
</g>
<g>
</g>
<g>
</g>
<g>
</g>
<g>
</g>
<g>
</g>
<g>
</g>
<g>
</g>
<g>
</g>
</svg>
