<?xml version="1.0" encoding="iso-8859-1"?>
<!-- Generator: Adobe Illustrator 19.0.0, SVG Export Plug-In . SVG Version: 6.00 Build 0)  -->
<svg version="1.1" id="Layer_1" xmlns="http://www.w3.org/2000/svg" xmlns:xlink="http://www.w3.org/1999/xlink" x="0px" y="0px"
	 viewBox="0 0 512 512" style="enable-background:new 0 0 512 512;" xml:space="preserve">
<path style="fill:#F2EFE2;" d="M489.739,100.174v289.391c0,24.588-19.934,44.522-44.522,44.522H66.783
	c-24.588,0-44.522-19.933-44.522-44.522V100.174c0-24.588,19.933-44.522,44.522-44.522h378.435
	C469.806,55.652,489.739,75.586,489.739,100.174z"/>
<path style="fill:#E8BA52;" d="M267.13,155.826c0,73.766-59.799,133.565-133.565,133.565S0,229.592,0,155.826
	S59.799,22.261,133.565,22.261S267.13,82.06,267.13,155.826z"/>
<path style="fill:#FED766;" d="M244.87,155.826c0,61.471-49.833,111.304-111.304,111.304S22.261,217.297,22.261,155.826
	S72.094,44.522,133.565,44.522S244.87,94.355,244.87,155.826z"/>
<path style="fill:#FFED80;" d="M197.168,155.826c0,35.127-28.476,63.603-63.603,63.603s-63.603-28.476-63.603-63.603
	s28.476-63.603,63.603-63.603S197.168,120.699,197.168,155.826z"/>
<g>
	<path style="fill:#AD8653;" d="M157.814,88.091V66.782c0-4.61-3.738-8.348-8.348-8.348c-4.61,0-8.348,3.738-8.348,8.348v17.491
		c-2.483-0.26-5.002-0.398-7.553-0.398c-2.551,0-5.07,0.138-7.553,0.398V66.782c0-4.61-3.738-8.348-8.348-8.348
		s-8.348,3.738-8.348,8.348v21.308c-27.777,9.974-47.702,36.568-47.702,67.735s19.925,57.761,47.702,67.735v21.308
		c0,4.61,3.738,8.348,8.348,8.348s8.348-3.738,8.348-8.348v-17.491c2.483,0.26,5.002,0.398,7.553,0.398
		c2.551,0,5.07-0.138,7.553-0.398v17.491c0,4.61,3.738,8.348,8.348,8.348c4.61,0,8.348-3.738,8.348-8.348v-21.308
		c27.777-9.974,47.702-36.568,47.702-67.735S185.591,98.065,157.814,88.091z M109.316,205.462
		c-18.344-8.998-31.006-27.863-31.006-49.636s12.662-40.638,31.006-49.636C109.316,106.19,109.316,205.462,109.316,205.462z
		 M141.118,210.551c-2.471,0.339-4.99,0.53-7.553,0.53s-5.081-0.189-7.553-0.53v-109.45c2.471-0.339,4.99-0.53,7.553-0.53
		s5.081,0.189,7.553,0.53V210.551z M157.814,205.462V106.19c18.344,8.998,31.006,27.864,31.006,49.636
		S176.158,196.464,157.814,205.462z"/>
	<path style="fill:#AD8653;" d="M222.609,237.164h267.13c12.295,0,22.261,9.966,22.261,22.261v219.184
		c0,12.295-9.966,22.261-22.261,22.261h-267.13c-12.295,0-22.261-9.966-22.261-22.261V259.425
		C200.348,247.13,210.314,237.164,222.609,237.164z"/>
</g>
<path style="fill:#7F5233;" d="M320.214,297.097c0,13.241-10.733,23.974-23.973,23.974s-23.974-10.733-23.974-23.974
	c0-13.24,10.733-23.973,23.974-23.973C309.481,273.124,320.214,283.857,320.214,297.097z M416.107,273.124
	c-13.24,0-23.973,10.733-23.973,23.973c0,13.241,10.733,23.974,23.973,23.974c13.24,0,23.974-10.733,23.974-23.974
	C440.081,283.857,429.348,273.124,416.107,273.124z"/>
<path style="fill:#E2DCBC;" d="M424.455,225.177v71.919c0,4.61-3.738,8.348-8.348,8.348s-8.348-3.738-8.348-8.348v-71.919
	c0-28.444-23.141-51.585-51.585-51.585s-51.585,23.141-51.585,51.585v71.919c0,4.61-3.738,8.348-8.348,8.348
	c-4.61,0-8.348-3.738-8.348-8.348v-71.919c0-37.65,30.631-68.281,68.281-68.281S424.455,187.527,424.455,225.177z"/>
<path style="fill:#FC8059;" d="M498.087,97.309v100.174c0,4.61-3.738,8.348-8.348,8.348s-8.348-3.738-8.348-8.348V97.309
	c0-19.946-16.228-36.174-36.174-36.174h-99.779v28.918c0,1.164-0.587,2.282-1.629,3.105c-2.174,1.715-5.697,1.715-7.87,0
	l-43.287-34.16c-4.346-3.43-4.346-8.991,0-12.422l43.287-34.159c2.174-1.715,5.697-1.715,7.87,0
	c1.044,0.824,1.629,1.941,1.629,3.105v28.917h99.779C474.369,44.439,498.087,68.157,498.087,97.309z M219.349,430.741l-43.287-34.16
	c-2.174-1.715-5.697-1.715-7.87,0c-1.044,0.824-1.63,1.941-1.63,3.105v28.918H66.783c-19.946,0-36.174-16.228-36.174-36.174V292.256
	c0-4.61-3.738-8.348-8.348-8.348s-8.348,3.738-8.348,8.348V392.43c0,29.152,23.718,52.87,52.87,52.87h99.779v28.917
	c0,1.164,0.587,2.282,1.63,3.105c2.174,1.715,5.697,1.715,7.87,0l43.287-34.159C223.695,439.732,223.695,434.17,219.349,430.741z"/>
<g>
</g>
<g>
</g>
<g>
</g>
<g>
</g>
<g>
</g>
<g>
</g>
<g>
</g>
<g>
</g>
<g>
</g>
<g>
</g>
<g>
</g>
<g>
</g>
<g>
</g>
<g>
</g>
<g>
</g>
</svg>
