<?xml version="1.0" encoding="iso-8859-1"?>
<!-- Generator: Adobe Illustrator 19.0.0, SVG Export Plug-In . SVG Version: 6.00 Build 0)  -->
<svg version="1.1" id="Layer_1" xmlns="http://www.w3.org/2000/svg" xmlns:xlink="http://www.w3.org/1999/xlink" x="0px" y="0px"
	 viewBox="0 0 392.727 392.727" style="enable-background:new 0 0 392.727 392.727;" xml:space="preserve">
<circle style="fill:#FFC10D;" cx="140.963" cy="96.97" r="96.97"/>
<path d="M133.787,82.23h0.065C134.24,82.166,133.916,82.23,133.787,82.23z"/>
<path style="fill:#194F82;" d="M140.963,144.679c-10.408,0-18.877-8.469-18.877-18.941c0-5.495-4.396-9.891-9.891-9.891
	s-9.891,4.396-9.891,9.891c0,17.907,12.283,32.97,28.832,37.43v8.857c0,5.495,4.396,9.891,9.891,9.891s9.891-4.396,9.891-9.891
	v-8.857c16.549-4.396,28.832-19.459,28.832-37.43c0-21.333-18.877-38.659-40.21-38.659c-0.129,0-0.129,0-0.065,0
	c-9.632-0.776-17.325-8.986-17.325-18.877c0-10.408,8.469-18.941,18.877-18.941c10.408,0,18.941,8.469,18.941,18.941
	c0,5.495,4.396,9.891,9.891,9.891s9.891-4.396,9.891-9.891c0-17.907-12.283-32.97-28.832-37.43V21.98
	c0-5.495-4.396-9.891-9.891-9.891s-9.891,4.461-9.891,9.956v8.857c-16.549,4.396-28.832,19.459-28.832,37.43
	c0,21.333,17.39,38.723,38.723,38.723c0.129,0,0.129,0,0.065,0c9.762,0.776,18.747,8.792,18.747,18.683
	C159.775,136.145,151.371,144.679,140.963,144.679z"/>
<path d="M135.597,104.145h-0.065C135.145,104.145,135.468,104.145,135.597,104.145z"/>
<path style="fill:#194F82;" d="M345.698,239.127c-15.321-17.131-37.495-26.958-60.897-26.958H161.262
	c-17.842,0-32.323,14.545-32.323,32.323c0,17.842,14.545,32.323,32.323,32.323h54.109c7.046,0,12.8,5.689,12.8,12.8
	c0,7.046-5.689,12.8-12.8,12.8h-62.578c-8.727,0-17.131-3.168-23.596-8.857l-74.796-68.137c-12.8-11.507-33.745-11.507-46.158,3.038
	c-11.119,12.8-10.667,31.677,1.164,43.895l99.556,102.723c10.731,11.184,25.859,17.648,41.438,17.648h155.216
	c6.012,0,10.925-4.849,10.925-10.925c0-6.012-4.848-10.925-10.925-10.925H150.272c-9.632,0-19.006-4.008-25.729-10.99
	L24.987,257.099c-3.879-4.008-4.008-10.214-0.388-14.481c4.331-4.396,10.279-5.107,15.063-1.099l74.796,68.137
	c10.537,9.374,24.113,14.545,38.141,14.545h62.578c19.071,0,34.586-15.515,34.586-34.586c0-19.071-15.515-34.586-34.586-34.586
	h-54.109c-5.818,0-10.537-4.719-10.537-10.537c0-5.818,4.719-10.537,10.537-10.537h123.539c17.131,0,33.358,7.176,44.606,19.717
	c17.325,19.394,38.659,52.945,41.503,102.788c0.323,6.012,5.495,10.667,11.507,10.279c6.012-0.323,10.602-5.495,10.279-11.507
	C389.464,299.119,365.351,261.107,345.698,239.127z"/>
<path style="fill:#56ACE0;" d="M370.91,356.461c-2.844-49.778-24.113-83.394-41.503-102.788
	c-11.184-12.541-27.41-19.717-44.606-19.717H161.262c-5.818,0-10.537,4.719-10.537,10.537c0,5.818,4.719,10.537,10.537,10.537
	h54.109c19.071,0,34.586,15.515,34.586,34.586s-15.515,34.586-34.586,34.586h-62.578c-14.093,0-27.669-5.172-38.141-14.545
	l-74.861-68.137c-4.784-4.008-10.731-3.297-15.063,1.099c-3.62,4.267-3.491,10.408,0.388,14.481l99.426,102.594
	c6.723,6.982,16.097,10.99,25.729,10.99h155.216c4.784,0,8.727,3.103,10.279,7.24l55.661-18.877
	C371.169,358.335,370.91,357.366,370.91,356.461z"/>
<g>
</g>
<g>
</g>
<g>
</g>
<g>
</g>
<g>
</g>
<g>
</g>
<g>
</g>
<g>
</g>
<g>
</g>
<g>
</g>
<g>
</g>
<g>
</g>
<g>
</g>
<g>
</g>
<g>
</g>
</svg>
